<svg width="196" height="97" viewBox="0 0 196 97" fill="none" xmlns="http://www.w3.org/2000/svg">
<g clip-path="url(#clip0_2_3)">
<path d="M2.26965 0H-0.224731V97H2.26965V0Z" fill="white"/>
<path d="M16.8361 76.5698C16.6763 76.4204 16.5455 65.5992 16.5455 52.5278V28.758L10.0929 25.8792C5.34715 23.7667 3.64033 22.837 3.76522 22.3818C3.87845 21.8333 5.70516 21.7516 20.3755 21.6621L36.8609 21.5606L40.9031 26.2289L41.0143 24.7701C41.0755 23.9687 41.2199 22.9144 41.3361 22.4281L41.5467 21.5489L67.9399 21.7543L69.2638 25.1077L73.8847 21.5442L92.0769 21.7543L92.6264 23.3104C92.9278 24.1663 93.3133 25.8313 93.4839 27.0062L93.7924 29.1459L99.121 21.5598H158.235L160.596 23.3571C161.911 24.3608 163.11 25.0066 163.306 24.816C163.498 24.6296 163.822 23.8628 164.026 23.1159L164.397 21.7543H183.922C201.031 21.7543 203.488 21.827 203.571 22.3456C203.655 22.7541 202.051 23.6956 198.326 25.4267C195.366 26.7961 192.539 28.2005 192.039 28.5468L191.149 29.1731L191.169 52.3982C191.183 68.0761 191.049 75.7011 190.757 75.8567C190.519 75.9941 185.179 73.118 178.851 69.4766C172.523 65.8236 167.195 62.8242 166.945 62.8242C166.656 62.8242 166.591 63.6062 166.758 65.1C167.2 69.0682 167.174 69.0682 158.682 66.6056C152.729 64.8744 151.314 64.3337 150.939 63.5867C150.56 62.8865 149.549 62.4235 146.568 61.5871C144.436 60.988 142.522 60.4939 142.322 60.4939C142.111 60.4908 142.052 61.9839 142.186 63.9174C142.316 65.8042 142.261 67.5898 142.064 67.8855C141.77 68.329 139.291 67.7338 128.576 64.641C121.332 62.5558 115.171 60.7546 114.838 60.634C114.452 60.4959 112.706 62.1473 109.801 65.4191C107.344 68.1617 105.096 70.4764 104.847 70.5153C104.571 70.5776 101.833 68.4379 98.7687 65.7692C95.5465 62.9604 92.8156 60.9063 92.3577 60.9063C91.8998 60.9002 89.1356 61.3654 86.1965 61.9372C81.867 62.7892 80.8679 63.1043 80.8679 63.6567C80.8679 64.1897 79.3318 64.8122 73.7492 66.5511C69.0034 68.0256 66.5056 68.6363 66.2142 68.3796C65.9853 68.1656 65.6939 66.5667 65.5648 64.8277C65.3696 62.1668 65.2268 61.6921 64.6656 61.8439C64.298 61.9438 59.0872 63.4506 53.0509 65.1895C47.0146 66.9285 41.8109 68.2512 41.4362 68.1228C40.9034 67.9322 40.8451 67.4537 41.0824 65.3685C41.2734 63.6995 41.2239 62.8437 40.9367 62.8437C40.6973 62.8437 35.3999 65.9287 29.1554 69.6906C16.9163 77.0822 17.0828 77.0044 16.6249 76.5764L16.8361 76.5698Z" fill="#E80007"/>
<path d="M18.085 51.3607V27.6687L5.38794 21.8333L37.0265 21.7668L42.8547 28.1858L43.0966 21.7668H67.9911L68.6697 23.9453C69.2858 25.9294 69.4107 26.0733 70.0518 25.5676C70.4394 25.2618 71.7045 24.2799 72.866 23.389L74.9724 21.7668H92.0823L92.7608 24.0309C93.1342 25.2758 93.4436 27.5088 93.4519 29.0105L93.4627 31.7065L100.29 21.7862L158.572 21.7767L164.691 26.3672L165.861 21.7767L203.411 21.7947L191.13 27.8247L191.127 31.2014C191.125 33.061 190.941 35.0295 190.718 35.5586C190.454 36.2083 190.454 36.5584 190.718 36.5584C190.976 36.5584 191.124 43.4442 191.124 55.4264C191.124 65.8135 191.034 74.2943 190.923 74.2943C190.813 74.2943 185.303 71.1549 178.643 67.3307L166.57 60.367V67.214L159.576 65.1638C153.665 63.4287 152.582 62.9891 152.457 62.2966C152.384 61.8492 152.268 61.4797 152.199 61.4797C152.13 61.4797 149.943 60.8689 147.328 60.1181C144.722 59.3711 142.416 58.7565 142.166 58.7565C141.907 58.7553 141.799 60.2815 141.88 62.8024L142.011 66.8483L135.433 64.9459C131.811 63.8994 125.9 62.2072 122.32 61.1879C117.116 59.7096 115.742 59.1844 115.659 58.6008C115.57 58.0757 114.102 59.4801 110.455 63.5415L105.376 69.2214L99.4233 64.0084C96.0929 61.1062 93.2621 58.9121 93.0539 59.1066C92.825 59.2657 89.9775 59.8808 86.7262 60.4721C81.5641 61.4174 80.8148 61.6469 80.6899 62.3433C80.5858 63.0008 79.4119 63.4987 73.9875 65.1832L67.41 67.2295V63.5649C67.41 61.5497 67.2639 59.9002 67.0857 59.9002C66.8364 59.9002 47.8944 65.3077 43.4817 66.6304C42.6866 66.8705 42.6533 66.7327 42.7823 63.561L42.9176 60.2426L40.0785 61.9465C38.5173 62.8841 32.9598 66.2258 27.756 69.3381C22.5523 72.4776 18.1812 75.0568 18.098 75.0568C18.0147 75.0568 17.9102 64.3974 17.9102 51.3649L18.085 51.3607ZM32.2391 61.1253L42.4384 55.4066L42.6624 38.0947H37.6668L39.1197 35.9745C40.406 34.0955 40.5726 33.5587 40.5726 31.2673V28.6647L35.91 23.724L14.9703 23.7695L21.0898 25.9247L21.0998 46.4266C21.107 61.0931 21.2397 66.8896 21.5702 66.8896C21.8225 66.8728 26.6074 64.287 32.2275 61.132L32.2391 61.1253ZM30.1576 48.0539V40.8569H33.488V53.6949L32.135 54.4651C31.3899 54.8892 30.6405 55.2354 30.4699 55.2393C30.2983 55.2401 30.1576 52.0026 30.1576 48.0423V48.0539ZM30.1576 33.0763V30.7421H33.488V35.4104H30.1576V33.0763ZM189.183 52.5278V38.1336H184.979L189.183 33.582V26.1126L195.636 23.7629L180.441 23.7142V32.5063L177.111 35.5447V23.7181H167.952V55.1129L172.198 57.6027C174.525 58.9721 176.569 60.1508 176.778 60.2247C176.967 60.2959 177.123 56.1399 177.123 50.9658V41.5902L178.059 41.6175C180.311 41.6833 180.282 41.5646 180.262 50.0984C180.252 54.4555 180.338 59.0072 180.452 60.1743L180.66 62.3139L184.823 64.5625C187.113 65.7997 189.028 66.8267 189.07 66.8461C189.127 66.8665 189.174 60.3882 189.174 52.4909L189.183 52.5278ZM78.0318 51.279L78.1446 44.1208L81.2502 41.2887V49.0693C81.2502 57.628 81.0854 57.1611 83.9561 56.4609C84.7554 56.2636 86.4914 55.9007 87.8069 55.6556L90.2006 55.2121V23.7395H75.5469L69.3857 28.4468V38.9117H73.7152L69.4274 42.9965L69.1501 61.3588L77.8924 58.4488L78.0318 51.279ZM78.1271 33.0335V30.672L81.2494 30.956L81.348 35.391H78.1259L78.1271 33.0335ZM116.01 43.265L116.023 35.4065H103.534V30.6604L111.027 30.9981L116.023 23.7232H101.494L94.8333 33.021V40.8405H108.155V45.1588C108.155 49.3992 108.129 49.5159 106.881 50.9942L105.607 52.4998L100.32 48.1815C94.2422 43.2019 94.5336 43.1241 95.0331 49.6793L95.3191 53.2661L105.435 61.5525L116.009 51.1654L116.01 43.265ZM140.572 53.0685C140.572 48.478 140.493 44.7044 140.398 44.7044C140.302 44.7044 139.727 46.0932 139.124 47.7933C138.437 49.7268 137.837 50.816 137.529 50.7032C137.258 50.604 135.069 49.7773 132.659 48.8631L128.288 47.2058L128.046 40.8257H134.207L135.302 38.4643C135.905 37.165 136.397 35.9395 136.397 35.7411C136.397 35.54 134.536 35.3778 132.234 35.3778H128.071V30.7872H132.046C134.232 30.7872 136.08 30.7234 136.151 30.6452C136.521 30.2406 140.139 24.1484 140.139 23.9539C140.139 23.8146 135.477 23.7002 129.773 23.7002H119.408L119.265 25.9372C119.187 27.1665 119.122 34.1068 119.122 41.3428V54.5309L129.321 57.9544C134.941 59.8373 139.77 61.3934 140.062 61.4128C140.463 61.4399 140.582 59.5338 140.582 53.0876L140.572 53.0685ZM165.133 52.1815V43.3116L160.512 39.0712L164.925 38.6822L165.158 28.8397L158.331 23.7045H143.469V53.9322L147.528 55.2276C149.759 55.9396 151.816 56.6009 152.107 56.6943C152.512 56.8289 152.627 55.1576 152.627 49.1471V41.4443L155.958 44.4826V57.8264L160.017 59.4175C162.248 60.2928 164.304 61.0164 164.596 61.0242C164.997 61.0344 165.116 59.0129 165.116 52.1543L165.133 52.1815ZM152.644 33.0412V30.7304L155.975 30.7732V35.3638H152.644V33.0412ZM56.0634 57.3945L66.2627 54.5702V23.4867L55.5222 23.4653C49.6108 23.4535 44.7817 23.4738 44.7817 23.5104C44.7817 23.547 45.7767 25.2182 46.9881 27.2295L49.1945 30.8786L57.229 31.1008L57.0658 35.3412L52.5698 35.3413C50.1095 35.3414 48.0738 35.4728 48.0738 35.6331C48.0709 35.7934 48.5859 37.0142 49.2186 38.3446L50.3676 40.7644L57.0284 40.7853V47.1654L47.3286 50.7601L46.188 46.9476C45.5594 44.8507 44.9766 43.1351 44.8891 43.1351C44.8017 43.1351 44.7318 46.9865 44.7318 51.6937C44.7318 58.2684 44.8513 60.2524 45.2522 60.2524C45.5386 60.2468 50.3726 58.9725 55.9926 57.4203L56.0634 57.3945Z" fill="#020000"/>
</g>
<defs>
<clipPath id="clip0_2_3">
<rect width="196" height="97" fill="white"/>
</clipPath>
</defs>
</svg>
