<svg width="194" height="58" viewBox="0 0 194 58" fill="none" xmlns="http://www.w3.org/2000/svg">
<path d="M14.8361 56.5698C14.6763 56.4204 14.5455 45.5992 14.5455 32.5278V8.75801L8.09294 5.87918C3.34715 3.76675 1.64033 2.83697 1.76522 2.3818C1.87845 1.83327 3.70516 1.75157 18.3755 1.66209L34.8609 1.56056L38.9031 6.22892L39.0143 4.77006C39.0755 3.96865 39.2199 2.91439 39.3361 2.4281L39.5467 1.54889L65.9399 1.75429L67.2638 5.10774L71.8847 1.54422L90.0769 1.75429L90.6264 3.31041C90.9278 4.16628 91.3133 5.83133 91.4839 7.0062L91.7924 9.14587L97.121 1.55978H156.235L158.596 3.3571C159.911 4.3608 161.11 5.00659 161.306 4.81597C161.498 4.62962 161.822 3.86284 162.026 3.1159L162.397 1.75429H181.922C199.031 1.75429 201.488 1.82704 201.571 2.34562C201.655 2.7541 200.051 3.69556 196.326 5.42674C193.366 6.79613 190.539 8.20053 190.039 8.54676L189.149 9.1731L189.169 32.3982C189.183 48.0761 189.049 55.7011 188.757 55.8567C188.519 55.9941 183.179 53.118 176.851 49.4766C170.523 45.8236 165.195 42.8242 164.945 42.8242C164.656 42.8242 164.591 43.6062 164.758 45.1C165.2 49.0682 165.174 49.0682 156.682 46.6056C150.729 44.8744 149.314 44.3337 148.939 43.5867C148.56 42.8865 147.549 42.4235 144.568 41.5871C142.436 40.988 140.522 40.4939 140.322 40.4939C140.111 40.4908 140.052 41.9839 140.186 43.9174C140.316 45.8042 140.261 47.5898 140.064 47.8855C139.77 48.329 137.291 47.7338 126.576 44.641C119.332 42.5558 113.171 40.7546 112.838 40.634C112.452 40.4959 110.706 42.1473 107.801 45.4191C105.344 48.1617 103.096 50.4764 102.847 50.5153C102.571 50.5776 99.8326 48.4379 96.7687 45.7692C93.5465 42.9604 90.8156 40.9063 90.3577 40.9063C89.8998 40.9002 87.1356 41.3654 84.1965 41.9372C79.867 42.7892 78.8679 43.1043 78.8679 43.6567C78.8679 44.1897 77.3318 44.8122 71.7492 46.5511C67.0034 48.0256 64.5056 48.6363 64.2142 48.3796C63.9853 48.1656 63.6939 46.5667 63.5648 44.8277C63.3696 42.1668 63.2268 41.6921 62.6656 41.8439C62.298 41.9438 57.0872 43.4506 51.0509 45.1895C45.0146 46.9285 39.8109 48.2512 39.4362 48.1228C38.9034 47.9322 38.8451 47.4537 39.0824 45.3685C39.2734 43.6995 39.2239 42.8437 38.9367 42.8437C38.6973 42.8437 33.3999 45.9287 27.1554 49.6906C14.9163 57.0822 15.0828 57.0044 14.6249 56.5764L14.8361 56.5698Z" fill="#E80007"/>
<path d="M16.085 31.3607V7.66873L3.38794 1.83328L35.0265 1.76675L40.8547 8.18575L41.0966 1.76675H65.9911L66.6697 3.94533C67.2858 5.92938 67.4107 6.07332 68.0518 5.56758C68.4394 5.2618 69.7045 4.27989 70.866 3.38901L72.9724 1.76675H90.0823L90.7608 4.03091C91.1342 5.27581 91.4436 7.50885 91.4519 9.0105L91.4627 11.7065L98.29 1.78621L156.572 1.77668L162.691 6.36723L163.861 1.77668L201.411 1.79469L189.13 7.82466L189.127 11.2014C189.125 13.061 188.941 15.0295 188.718 15.5586C188.454 16.2083 188.454 16.5584 188.718 16.5584C188.976 16.5584 189.124 23.4442 189.124 35.4264C189.124 45.8135 189.034 54.2943 188.923 54.2943C188.813 54.2943 183.303 51.1549 176.643 47.3307L164.57 40.367V47.214L157.576 45.1638C151.665 43.4287 150.582 42.9891 150.457 42.2966C150.384 41.8492 150.268 41.4797 150.199 41.4797C150.13 41.4797 147.943 40.8689 145.328 40.1181C142.722 39.3711 140.416 38.7565 140.166 38.7565C139.907 38.7553 139.799 40.2815 139.88 42.8024L140.011 46.8483L133.433 44.9459C129.811 43.8994 123.9 42.2072 120.32 41.1879C115.116 39.7096 113.742 39.1844 113.659 38.6008C113.57 38.0757 112.102 39.4801 108.455 43.5415L103.376 49.2214L97.4233 44.0084C94.0929 41.1062 91.2621 38.9121 91.0539 39.1066C90.825 39.2657 87.9775 39.8808 84.7262 40.4721C79.5641 41.4174 78.8148 41.6469 78.6899 42.3433C78.5858 43.0008 77.4119 43.4987 71.9875 45.1832L65.41 47.2295V43.5649C65.41 41.5497 65.2639 39.9002 65.0857 39.9002C64.8364 39.9002 45.8944 45.3077 41.4817 46.6304C40.6866 46.8705 40.6533 46.7327 40.7823 43.561L40.9176 40.2426L38.0785 41.9465C36.5173 42.8841 30.9598 46.2258 25.756 49.3381C20.5523 52.4776 16.1812 55.0568 16.098 55.0568C16.0147 55.0568 15.9102 44.3974 15.9102 31.3649L16.085 31.3607ZM30.2391 41.1253L40.4384 35.4066L40.6624 18.0947H35.6668L37.1197 15.9745C38.406 14.0955 38.5726 13.5587 38.5726 11.2673V8.66465L33.91 3.72397L12.9703 3.76949L19.0898 5.92471L19.0998 26.4266C19.107 41.0931 19.2397 46.8896 19.5702 46.8896C19.8225 46.8728 24.6074 44.287 30.2275 41.132L30.2391 41.1253ZM28.1576 28.0539V20.8569H31.488V33.6949L30.135 34.4651C29.3899 34.8892 28.6405 35.2354 28.4699 35.2393C28.2983 35.2401 28.1576 32.0026 28.1576 28.0423V28.0539ZM28.1576 13.0763V10.7421H31.488V15.4104H28.1576V13.0763ZM187.183 32.5278V18.1336H182.979L187.183 13.582V6.11261L193.636 3.76287L178.441 3.71424V12.5063L175.111 15.5447V3.71813H165.952V35.1129L170.198 37.6027C172.525 38.9721 174.569 40.1508 174.778 40.2247C174.967 40.2959 175.123 36.1399 175.123 30.9658V21.5902L176.059 21.6175C178.311 21.6833 178.282 21.5646 178.262 30.0984C178.252 34.4555 178.338 39.0072 178.452 40.1743L178.66 42.3139L182.823 44.5625C185.113 45.7997 187.028 46.8267 187.07 46.8461C187.127 46.8665 187.174 40.3882 187.174 32.4909L187.183 32.5278ZM76.0318 31.279L76.1446 24.1208L79.2502 21.2887V29.0693C79.2502 37.628 79.0854 37.1611 81.9561 36.4609C82.7554 36.2636 84.4914 35.9007 85.8069 35.6556L88.2006 35.2121V3.73953H73.5469L67.3857 8.4468V18.9117H71.7152L67.4274 22.9965L67.1501 41.3588L75.8924 38.4488L76.0318 31.279ZM76.1271 13.0335V10.672L79.2494 10.956L79.348 15.391H76.1259L76.1271 13.0335ZM114.01 23.265L114.023 15.4065H101.534V10.6604L109.027 10.9981L114.023 3.72319H99.4941L92.8333 13.021V20.8405H106.155V25.1588C106.155 29.3992 106.129 29.5159 104.881 30.9942L103.607 32.4998L98.3201 28.1815C92.2422 23.2019 92.5336 23.1241 93.0331 29.6793L93.3191 33.2661L103.435 41.5525L114.009 31.1654L114.01 23.265ZM138.572 33.0685C138.572 28.478 138.493 24.7044 138.398 24.7044C138.302 24.7044 137.727 26.0932 137.124 27.7933C136.437 29.7268 135.837 30.816 135.529 30.7032C135.258 30.604 133.069 29.7773 130.659 28.8631L126.288 27.2058L126.046 20.8257H132.207L133.302 18.4643C133.905 17.165 134.397 15.9395 134.397 15.7411C134.397 15.54 132.536 15.3778 130.234 15.3778H126.071V10.7872H130.046C132.232 10.7872 134.08 10.7234 134.151 10.6452C134.521 10.2406 138.139 4.1484 138.139 3.95389C138.139 3.81461 133.477 3.70024 127.773 3.70024H117.408L117.265 5.93716C117.187 7.16649 117.122 14.1068 117.122 21.3428V34.5309L127.321 37.9544C132.941 39.8373 137.77 41.3934 138.062 41.4128C138.463 41.4399 138.582 39.5338 138.582 33.0876L138.572 33.0685ZM163.133 32.1815V23.3116L158.512 19.0712L162.925 18.6822L163.158 8.83971L156.331 3.70452H141.469V33.9322L145.528 35.2276C147.759 35.9396 149.816 36.6009 150.107 36.6943C150.512 36.8289 150.627 35.1576 150.627 29.1471V21.4443L153.958 24.4826V37.8264L158.017 39.4175C160.248 40.2928 162.304 41.0164 162.596 41.0242C162.997 41.0344 163.116 39.0129 163.116 32.1543L163.133 32.1815ZM150.644 13.0412V10.7304L153.975 10.7732V15.3638H150.644V13.0412ZM54.0634 37.3945L64.2627 34.5702V3.48666L53.5222 3.46527C47.6108 3.45352 42.7817 3.47382 42.7817 3.51039C42.7817 3.547 43.7767 5.21823 44.9881 7.22952L47.1945 10.8786L55.229 11.1008L55.0658 15.3412L50.5698 15.3413C48.1095 15.3414 46.0738 15.4728 46.0738 15.6331C46.0709 15.7934 46.5859 17.0142 47.2186 18.3446L48.3676 20.7644L55.0284 20.7853V27.1654L45.3286 30.7601L44.188 26.9476C43.5594 24.8507 42.9766 23.1351 42.8891 23.1351C42.8017 23.1351 42.7318 26.9865 42.7318 31.6937C42.7318 38.2684 42.8513 40.2524 43.2522 40.2524C43.5386 40.2468 48.3726 38.9725 53.9926 37.4203L54.0634 37.3945Z" fill="#020000"/>
</svg>
